<?xml version="1.0" encoding="utf-8"?>
<!-- Generator: Adobe Illustrator 15.1.0, SVG Export Plug-In . SVG Version: 6.00 Build 0)  -->
<!DOCTYPE svg PUBLIC "-//W3C//DTD SVG 1.1 Basic//EN" "http://www.w3.org/Graphics/SVG/1.1/DTD/svg11-basic.dtd">
<svg version="1.1" baseProfile="basic" id="Layer_1"
	 xmlns="http://www.w3.org/2000/svg" xmlns:xlink="http://www.w3.org/1999/xlink" x="0px" y="0px" viewBox="0 0 372.171 231.947" xml:space="preserve">
<g>
	<path d="M190.082,82.23c0.11,0.209,0.202,0.428,0.281,0.647c0.18,0.119,0.354,0.179,0.474,0.179c0.079-0.01,0.132-0.02,0.182-0.05
		c0.122-0.059,0.249-0.258,0.249-0.607c0-0.278-0.08-0.617-0.26-0.945c-0.318-0.588-0.855-0.896-1.121-0.877
		c-0.08,0-0.133,0.021-0.185,0.05c-0.127,0.06-0.255,0.249-0.255,0.607c0,0.029,0.018,0.08,0.018,0.109
		C189.694,81.613,189.904,81.912,190.082,82.23z"/>
	<path d="M194.643,78.17c-0.39,0.415-0.8,0.815-1.233,1.203C193.843,78.986,194.253,78.585,194.643,78.17z"/>
	<path d="M188.821,83.362c0.038,0.104,0.069,0.211,0.101,0.319C188.892,83.573,188.861,83.465,188.821,83.362z"/>
	<path d="M171.44,81.715c0.478-0.146,0.964-0.284,1.458-0.421C172.404,81.425,171.917,81.566,171.44,81.715z"/>
	<polygon fill="#7E6A6A" points="78.94,168.737 80.613,160.763 52.106,160.763 50.433,168.737 60.283,168.737 50.433,215.657 
		59.148,215.657 69.003,168.737 	"/>
	<path fill="#7E6A6A" d="M86.378,175.339c-8.473,0-16.501,7.976-19.257,21.09c-2.582,12.307,1.404,19.716,11.583,19.716
		c3.664,0,7.647-0.737,10.331-1.873L89.134,208c-1.969,0.815-4.548,1.463-7.403,1.463c-4.64,0-8.284-2.438-6.495-11.321h18.65
		c0.306-1.056,0.744-2.359,1.222-4.639C97.331,182.917,94.683,175.339,86.378,175.339z M87.367,191.958H76.613
		c1.143-4.65,3.998-10.106,7.744-10.106C87.454,181.852,88.781,185.596,87.367,191.958z"/>
	<path fill="#7E6A6A" d="M117.457,182.588c1.959,0,3.224,0.567,4.05,0.896l2.758-6.92c-0.939-0.578-3.104-1.145-5.459-1.145
		c-10.512,0-18.974,8.881-21.456,20.691c-2.736,13.033,2.064,20.034,11.518,20.034c2.93,0,5.589-0.647,6.95-1.305l0.523-6.761
		c-1.357,0.656-2.793,0.895-4.424,0.895c-5.294,0-7.527-4.888-5.815-13.033C107.627,188.693,111.839,182.588,117.457,182.588z"/>
	<path fill="#7E6A6A" d="M144.419,175.339c-2.113,0-3.946,0.568-5.599,1.463c-1.474,0.817-2.955,2.032-4.14,3.426h-0.162
		l4.394-20.939h-8.715l-11.836,56.368h8.715l5.272-25.092c0.202-0.975,0.64-2.281,0.956-3.007c1.595-3.346,3.796-4.888,6.076-4.888
		c3.664,0,3.741,3.913,2.831,8.225l-5.2,24.763h8.72l5.262-25.092C153.102,180.547,150.692,175.339,144.419,175.339z"/>
	<path fill="#7E6A6A" d="M177.433,175.339c-4.156,0-7.939,2.122-10.474,5.297h-0.167l0.567-4.65h-7.577
		c-0.57,3.505-1.076,6.682-2.019,11.162l-5.979,28.508h8.708l5.153-24.515c0.304-1.474,0.741-2.768,1.157-3.585
		c1.496-3.256,3.801-4.888,5.915-4.888c3.826,0,3.823,3.913,3.005,7.815l-5.293,25.173h8.72l5.456-25.989
		C186.538,180.468,184.111,175.339,177.433,175.339z"/>
	<path fill="#7E6A6A" d="M206.611,175.339c-7.408,0-15.809,6.274-18.818,20.602c-2.807,13.362,1.511,20.363,9.896,20.363
		c6.034,0,15.215-4.561,18.58-20.602C219.007,182.669,214.925,175.339,206.611,175.339z M207.626,195.782
		c-1.254,5.944-3.893,13.851-8.205,13.851c-4.639,0-4.281-7.169-2.877-13.851c1.205-5.785,3.764-13.682,8.494-13.682
		C209.519,182.1,208.832,189.997,207.626,195.782z"/>
	<polygon fill="#7E6A6A" points="228.497,159.289 216.667,215.657 225.38,215.657 237.219,159.289 	"/>
	<path fill="#7E6A6A" d="M253.26,175.339c-7.418,0-15.821,6.274-18.829,20.602c-2.809,13.362,1.514,20.363,9.897,20.363
		c6.034,0,15.214-4.561,18.581-20.602C265.648,182.669,261.564,175.339,253.26,175.339z M254.266,195.782
		c-1.255,5.944-3.894,13.851-8.205,13.851c-4.64,0-4.281-7.169-2.878-13.851c1.215-5.785,3.774-13.682,8.494-13.682
		C256.158,182.1,255.481,189.997,254.266,195.782z"/>
	<path fill="#7E6A6A" d="M291.107,175.987l-1.384,4.242h-0.159c-0.826-2.689-2.719-4.889-6.303-4.889
		c-6.682,0-14.408,6.92-17.314,20.771c-2.191,10.425-0.08,19.387,7.984,19.387c3.097,0,6.264-1.554,8.234-4.322h0.16l-0.648,3.097
		c-1.553,7.408-4.778,10.754-9.986,10.754c-3.187,0-5.536-0.815-7.139-1.712l-3.217,6.761c2.29,1.135,5.477,1.872,9.061,1.872
		c5.129,0,9.439-1.544,12.716-4.321c3.564-3.008,5.935-7.33,7.896-16.688l4.73-22.484c1.105-5.297,2.091-9.21,3.017-12.466H291.107z
		 M286.766,190.076l-2.329,11.083c-0.22,1.055-0.548,2.2-1.176,3.256c-1.673,3.335-3.725,4.15-5.357,4.15
		c-3.335,0-5.068-4.15-3.275-12.704c1.594-7.579,4.71-13.114,8.871-13.114c2.6,0,3.346,2.281,3.446,4.482
		C287.025,188.045,286.965,189.101,286.766,190.076z"/>
	<polygon fill="#7E6A6A" points="304.32,175.987 295.987,215.657 304.708,215.657 313.033,175.987 	"/>
	<path fill="#7E6A6A" d="M309.608,170.61c2.848,0,5.317-2.032,5.845-4.968c0.647-3.088-0.887-5.049-3.574-5.049
		c-2.609,0-5.139,1.961-5.716,5.049C305.465,168.578,307.079,170.61,309.608,170.61z"/>
	<path fill="#7E6A6A" d="M321.357,198.141h18.66c0.298-1.056,0.736-2.359,1.215-4.639c2.23-10.584-0.418-18.163-8.723-18.163
		c-8.483,0-16.509,7.976-19.257,21.09c-2.589,12.307,1.394,19.716,11.58,19.716c3.664,0,7.646-0.737,10.326-1.873l0.099-6.272
		c-1.962,0.815-4.54,1.463-7.388,1.463C323.22,209.462,319.585,207.024,321.357,198.141z M330.478,181.852
		c3.106,0,4.431,3.744,3.018,10.106h-10.754C323.886,187.308,326.734,181.852,330.478,181.852z"/>
	<path fill="#7E6A6A" d="M357.064,191.958c-3.326-2.449-4.043-3.675-3.595-5.784c0.468-2.201,2.34-4.152,5.347-4.152
		c2.121,0,3.764,0.726,5.099,1.702l3.146-6.432c-1.733-1.056-3.983-1.952-7.249-1.952c-7.089,0-13.193,5.049-14.638,11.89
		c-0.836,3.992,0.559,7.815,5.696,11.32c3.166,2.359,3.963,3.993,3.444,6.434c-0.597,2.856-2.827,4.561-5.914,4.561
		c-2.609,0-5.138-1.137-6.402-2.111l-3.058,6.432c1.494,1.385,4.899,2.281,7.986,2.281c7.498,0,13.989-4.152,15.682-12.218
		C363.635,199.038,361.683,195.134,357.064,191.958z"/>
	<path fill="#472A2B" d="M67.353,114.272c0-10.485-5.043-21.936-15.725-31.444c-10.483-9.32-12.997-14.169-12.997-20.382
		c0.184-10.087,7.174-16.688,17.465-16.688c6.016,0,10.288,1.354,14.171,3.495l6.599-20.97c-3.107-1.942-9.514-4.073-19.611-4.073
		c-25.615,0-42.699,17.087-42.699,41.343c0,11.45,5.24,21.936,15.531,31.833c8.147,7.966,13.004,13.004,13.004,21.746
		c0,10.286-7.767,17.077-18.834,16.689c-6.982,0-13.781-1.941-18.047-4.471L0,152.507c3.104,1.942,11.451,4.86,24.455,4.86
		C49.306,157.368,67.353,141.445,67.353,114.272z"/>
	<path fill="#472A2B" d="M100.737,157.368c10.873,0,19.025-1.753,27.37-5.238l-1.551-18.44c-5.633,2.708-11.262,4.65-19.217,4.65
		c-6.602,0-10.871-2.908-13.204-6.791c-2.13-3.494-2.327-8.344-2.13-11.062c26.396,0.776,47.358-8.932,47.358-34.94
		c-0.191-13.004-7.958-25.819-25.231-25.819c-30.282,0-45.616,34.362-45.616,61.924C68.516,142.032,77.447,157.368,100.737,157.368z
		 M111.025,79.144c4.658,0,6.791,3.296,6.791,8.543v0.189c0,9.897-10.674,14.946-23.481,14.358
		C97.053,88.653,103.652,79.144,111.025,79.144z"/>
	<path fill="#472A2B" d="M259.118,50.921l-2.124,10.947c-2.141-1.165-5.059-2.141-8.543-2.141
		c-29.313,0-47.167,35.139-47.167,68.327c0,17.862,7.757,29.702,21.538,29.702c8.164,0,17.086-5.826,22.722-15.534h0.378
		l-1.154,13.98h19.795c1.165-9.709,2.907-21.159,4.849-31.256L288.817,21.88h-24.065l-4.896,25.232
		c4.027,4.943,5.503,9.329,5.503,9.329S264.213,53.94,259.118,50.921z M246.699,120.286c-2.908,10.097-7.768,17.475-13.393,17.475
		c-5.824,0-7.955-5.435-7.955-13.979c0-15.722,8.732-45.803,22.513-45.803c2.519,0,4.659,0.966,6.024,2.331L246.699,120.286z"/>
	<path fill="none" stroke="#472A2B" stroke-width="0" stroke-linecap="round" stroke-linejoin="round" d="M199.839,67.683
		c0,0.01,0,0.01,0.012,0.02"/>
	<path fill="#472A2B" d="M206.132,85.546c-0.099-6.433-2.051-12.805-6.093-17.614c-0.974,3.795-2.667,7.325-5.374,10.213
		c-0.008,0.008-0.015,0.017-0.022,0.025c-0.39,0.415-0.8,0.816-1.233,1.203c-0.541,0.488-1.094,0.956-1.635,1.414
		c-0.241-0.378-0.54-0.687-0.876-0.896c3.076-2.897,6.372-7.139,7.826-13.422c-4.103-4.092-9.979-6.741-17.823-6.741
		c-30.28,0-45.614,34.362-45.614,61.924c0,20.381,8.929,35.717,32.221,35.717c10.866,0,19.018-1.753,27.372-5.238l-1.556-18.44
		c-5.633,2.708-11.259,4.65-19.217,4.65c-6.6,0-10.871-2.908-13.201-6.791c-2.131-3.494-2.33-8.344-2.131-11.062
		C185.166,121.263,206.132,111.555,206.132,85.546z"/>
	<path fill="#472A2B" d="M171.38,81.733c0.02-0.006,0.041-0.011,0.06-0.018c0.478-0.149,0.964-0.29,1.458-0.421
		c0.023-0.006,0.045-0.013,0.068-0.02v0.002c2.607-0.684,5.404-1.098,7.916-1.098c0.01,0,0.021,0,0.037,0
		c3.809-0.01,6.822,0.976,7.73,2.808c0.068,0.12,0.123,0.246,0.171,0.375c0.04,0.103,0.071,0.211,0.101,0.319
		c0.008,0.024,0.017,0.048,0.023,0.073l-0.001,0c0.082,0.325,0.125,0.67,0.125,1.045c0.027,2.33-1.704,5.596-4.241,8.563
		c-1.067,1.268-2.276,2.482-3.53,3.584l0.001,0c-0.011,0.009-0.021,0.017-0.032,0.026c-1.69,1.483-3.464,2.756-5.102,3.628
		c-2.554,1.364-5.242,2.011-7.699,2.011c-3.851-0.01-7.05-1.574-8.531-4.351c-0.578-1.096-0.849-2.271-0.849-3.515
		c-0.012-3.994,2.967-8.593,7.986-11.252c1.238-0.662,2.717-1.259,4.309-1.761V81.733z"/>
	<path fill="#472A2B" d="M177.414,104.524c-6.845,3.645-14.597,2.439-17.32-2.678c-0.222-0.419-0.391-0.846-0.53-1.294
		c2.044,2.43,5.317,3.674,8.881,3.674c0.008,0,0.011,0,0.021,0c2.735,0,5.668-0.717,8.456-2.201c3.104-1.652,6.486-4.48,9.139-7.617
		c2.189-2.599,3.886-5.387,4.431-7.995C192.31,91.669,184.005,101.02,177.414,104.524z"/>
	<path fill="#FFFFFF" d="M189.702,80.627c0.052-0.03,0.104-0.05,0.185-0.05c0.266-0.02,0.803,0.289,1.121,0.877
		c0.18,0.328,0.26,0.667,0.26,0.945c0,0.349-0.127,0.548-0.249,0.607c-0.05,0.03-0.103,0.04-0.182,0.05
		c-0.12,0-0.294-0.06-0.474-0.179c-0.079-0.219-0.171-0.438-0.281-0.647c-0.178-0.318-0.388-0.617-0.617-0.887
		c0-0.029-0.018-0.08-0.018-0.109C189.447,80.876,189.575,80.687,189.702,80.627z"/>
	<path fill="#C1D82F" d="M190.899,79.89c0.336,0.209,0.635,0.518,0.876,0.896c0.541-0.458,1.094-0.926,1.635-1.414
		c0.434-0.387,0.844-0.788,1.233-1.203c0.008-0.008,0.015-0.017,0.022-0.025c2.714-2.896,4.4-6.428,5.374-10.233
		c-0.418-0.498-0.856-0.976-1.314-1.444C197.271,72.751,193.975,76.993,190.899,79.89z"/>
	<path fill="#C1D82F" d="M181.266,96.974c0.011-0.009,0.021-0.017,0.032-0.026l-0.001,0l-3.783-7.119l3.41-1.812
		c0.654,0.498,1.562,0.617,2.33,0.199c0.776-0.409,1.192-1.225,1.134-2.042l4.556-2.419l0.001,0
		c-0.007-0.025-0.016-0.049-0.023-0.073c-0.031-0.108-0.063-0.215-0.101-0.319c-0.048-0.129-0.103-0.254-0.171-0.375
		c-0.119-0.239-0.27-0.458-0.457-0.667l-4.521,2.4c-0.649-0.578-1.616-0.727-2.433-0.299c-0.816,0.438-1.231,1.324-1.115,2.191
		l-3.367,1.792l-3.791-7.127v-0.002c-0.023,0.006-0.045,0.013-0.068,0.02c-0.494,0.137-0.98,0.275-1.458,0.421
		c-0.019,0.006-0.04,0.012-0.06,0.018v0.001l8.647,16.268C180.443,97.672,180.859,97.332,181.266,96.974z"/>
	<path fill="#C1D82F" d="M150.413,57.217c5.815-4.729,18.642-7.975,30.399-7.427c11.75,0.538,15.404,5.814,15.404,5.814
		s-3.109-6.899-6.354-9.598c-3.243-2.698-12.705-11.212-28.776-3.774c-16.071,7.428-17.027,22.962-17.027,22.962
		S144.598,61.958,150.413,57.217z"/>
	<path fill="#C1D82F" d="M198.357,47.032c0,0-8.514-7.558-12.713-14.448c-4.188-6.891-6.614-14.568-1.367-24.814
		c6.304-12.307,16.967-1.772,13.851,2.549c-3.106,4.321-8.284,1.046-8.284,1.046s0,3.654,5.396,3.116s6.353-3.116,5.277-6.9
		c-1.085-3.774-4.739-9.589-12.297-6.891c-7.558,2.699-11.996,15.633-6.891,27.701C185.86,39.105,198.357,47.032,198.357,47.032z"/>
	<path fill="#C1D82F" d="M215.652,49.69c14.119-4.491,30.768-4.729,39.391-0.866c1.582,0.711,2.928,1.417,4.075,2.098
		c5.096,3.019,6.241,5.52,6.241,5.52s-1.476-4.385-5.503-9.329c-4.261-5.231-11.384-11.089-22.677-13.045
		c-21.965-3.793-30.707,9.639-33.754,13.97c-3.067,4.341-4.601,13.741-4.601,13.741S201.542,54.171,215.652,49.69z"/>
	<path fill="#C1D82F" d="M186.06,94.408c-2.652,3.137-6.035,5.965-9.139,7.617c-2.788,1.484-5.721,2.201-8.456,2.201
		c-0.01,0-0.013,0-0.021,0c-3.564,0-6.837-1.244-8.881-3.674c0.14,0.448,0.309,0.875,0.53,1.294
		c2.723,5.118,10.475,6.323,17.32,2.678c6.592-3.505,14.896-12.855,13.077-18.112C189.946,89.021,188.25,91.809,186.06,94.408z"/>
	<polygon fill="#472A2B" points="359.476,219.114 361.693,219.114 361.693,225.017 362.577,225.017 362.577,219.114 
		364.793,219.114 364.793,218.368 359.476,218.368 	"/>
	<polygon fill="#472A2B" points="368.856,223.956 366.761,218.368 365.551,218.368 365.551,225.017 366.389,225.017 
		366.389,219.486 366.407,219.486 368.484,225.017 369.239,225.017 371.315,219.486 371.333,219.486 371.333,225.017 
		372.171,225.017 372.171,218.368 370.961,218.368 	"/>
	<path fill="#FFFFFF" d="M159.085,94.747c0,1.244,0.271,2.419,0.849,3.515c1.481,2.777,4.68,4.341,8.531,4.351
		c2.457,0,5.146-0.647,7.699-2.011c1.638-0.872,3.411-2.145,5.102-3.628c-0.407,0.358-0.823,0.699-1.238,1.029l-8.647-16.268
		c-1.592,0.501-3.07,1.099-4.309,1.761C162.053,86.154,159.073,90.753,159.085,94.747z"/>
	<path fill="#FFFFFF" d="M180.125,86.612c-0.116-0.867,0.299-1.752,1.115-2.191c0.816-0.428,1.783-0.279,2.433,0.299l4.521-2.4
		c0.188,0.209,0.338,0.429,0.457,0.667c-0.908-1.832-3.922-2.818-7.73-2.808c-0.016,0-0.027,0-0.037,0
		c-2.512,0-5.309,0.414-7.916,1.098l3.791,7.127L180.125,86.612z"/>
	<path fill="#FFFFFF" d="M183.254,88.215c-0.769,0.418-1.676,0.299-2.33-0.199l-3.41,1.812l3.783,7.119
		c1.254-1.103,2.463-2.316,3.53-3.584c2.537-2.967,4.269-6.233,4.241-8.563c0-0.375-0.043-0.72-0.125-1.045l-4.556,2.419
		C184.447,86.99,184.031,87.806,183.254,88.215z"/>
</g>
</svg>
